<svg width="662" height="662" viewBox="0 0 662 662" fill="none" xmlns="http://www.w3.org/2000/svg">
<path d="M362.256 600.32C289.143 600.32 229.872 592.093 229.872 581.942C229.872 575.515 253.63 569.86 289.616 566.574C288.247 571.962 289.841 577.575 294.296 581.671C299.01 586.006 310.24 586.703 316.959 586.703C319.071 586.703 320.737 586.633 321.617 586.588H352.051C352.148 586.588 352.248 586.583 352.348 586.574C352.792 586.531 363.295 585.392 367.333 573.781C368.049 571.717 368.489 568.247 368.757 563.584C370.574 563.598 372.377 563.613 374.177 563.637C372.832 568.442 372.947 574.504 377.518 580.033C383.083 586.765 394.799 586.857 395.297 586.857H427.974C428.071 586.857 428.171 586.853 428.268 586.843C428.715 586.801 439.217 585.662 443.256 574.051C443.548 573.216 443.842 571.07 444.154 567.502C474.901 570.866 494.641 576.084 494.641 581.942C494.641 592.093 435.369 600.32 362.256 600.32Z" fill="black" fill-opacity="0.4"/>
<path d="M382.046 309.408L380.764 327.246L380.105 336.33L368.795 493.01C368.795 493.01 379.523 493.175 393.924 492.24C396.743 492.056 399.698 491.832 402.745 491.556C425.438 489.514 452.993 484.608 463.457 472.943C479.093 455.499 481.703 370.319 467.74 336.543C461.344 321.06 428.837 314.317 405.754 311.447C403.174 311.119 400.708 310.847 398.416 310.62C388.74 309.642 382.046 309.408 382.046 309.408Z" fill="white"/>
<path d="M448.427 479.109C448.458 478.275 448.492 477.434 448.53 476.588C448.71 472.1 448.888 467.729 449.059 463.55C450.053 463.656 451.061 463.71 452.069 463.71C457.271 463.71 462.518 462.282 466.84 459.428C465.164 464.621 463.245 468.55 461.154 470.884C458.225 474.153 453.791 476.863 448.427 479.109Z" fill="#D7D1DA"/>
<path d="M384.914 312.629L372.112 489.926C386.672 489.843 445.45 488.399 461.154 470.883C467.816 463.452 472.706 439.856 473.613 410.771C474.542 380.972 471.197 352.983 464.889 337.72C457.547 319.966 407.255 313.769 384.914 312.629ZM371.329 496.118C369.93 496.118 369.037 496.107 368.745 496.101L365.478 496.051L379.181 306.221L382.154 306.325C382.345 306.33 401.51 307.03 421.657 310.747C449.505 315.885 465.973 324.165 470.601 335.359C485.156 370.565 482.168 456.704 465.755 475.009C447.832 495.001 385.101 496.118 371.329 496.118Z" fill="#371A45"/>
<path d="M470.598 408.677L439.748 410.183C436.995 410.319 434.674 412.288 434.115 414.989C432.058 424.874 428.49 447.955 437.955 455.855C445.809 462.411 458.849 462.008 466.645 455.749C475.368 448.748 476.797 426.058 476.955 414.811C477.002 411.313 474.093 408.507 470.598 408.677Z" fill="white"/>
<path d="M453.295 457.498C453.081 457.347 452.876 457.191 452.705 457.051C451.489 456.069 450.412 454.959 449.461 453.747C449.478 453.372 449.493 452.996 449.507 452.624C450.252 450.916 450.903 449.16 451.469 447.372C453.09 448.058 454.892 448.496 456.857 448.496C460.5 448.496 464.696 446.99 469.287 442.755C469.861 442.225 470.414 441.638 470.942 440.994C469.393 447.004 467.279 451.28 464.713 453.339C461.546 455.881 457.443 457.268 453.295 457.498Z" fill="#D7D1DA"/>
<path d="M470.749 411.764L439.9 413.27C438.548 413.336 437.414 414.301 437.14 415.618C433.197 434.575 434.242 448.73 439.935 453.483C446.471 458.939 457.819 458.873 464.713 453.339C470.168 448.961 473.591 434.541 473.864 414.767C473.876 413.938 473.555 413.167 472.96 412.593C472.366 412.017 471.576 411.727 470.749 411.764ZM452.07 463.71C446.182 463.71 440.353 461.884 435.974 458.226C425.586 449.555 428.455 427.019 431.09 414.358C431.936 410.287 435.435 407.3 439.597 407.098L470.448 405.59C472.963 405.471 475.443 406.4 477.254 408.148C479.06 409.893 480.079 412.337 480.044 414.851C479.826 430.588 477.658 450.873 468.581 458.158C463.971 461.859 457.993 463.71 452.07 463.71Z" fill="#371A45"/>
<path d="M451.835 462.992C439.641 454.447 439.31 437.531 441.931 424.284C442.145 423.384 442.349 422.55 442.732 421.589C442.897 421.172 443.37 420.966 443.788 421.131C444.182 421.287 444.387 421.716 444.271 422.113C443.415 425.395 443.386 428.974 443.417 432.376C443.479 435.819 443.744 439.219 444.449 442.575C445.679 448.164 448.264 453.47 452.706 457.05C453.178 457.444 453.934 457.946 454.398 458.174C457.974 459.846 455.249 465.022 451.835 462.992Z" fill="#371A45"/>
<path d="M421.122 331.366C432.564 330.2 443.988 329.471 455.502 329.924C459.374 330.114 463.262 330.408 467.241 331.19C468.916 331.518 470.009 333.145 469.68 334.82C469.346 336.564 467.575 337.672 465.86 337.213C455.15 334.578 443.709 334.399 432.662 334.313C428.896 334.321 425.11 334.382 421.365 334.544C419.34 334.59 419.098 331.634 421.122 331.366Z" fill="#371A45"/>
<path d="M447.672 426.279C447.068 435.218 446.041 461.628 444.899 489.639C443.338 528.087 441.545 569.555 440.334 573.038C436.903 582.912 427.972 583.769 427.972 583.769H395.297C395.297 583.769 384.605 583.752 379.901 578.068C372.166 568.712 380.024 558.547 380.024 558.547C380.024 558.547 378.827 532.236 378.27 502.201C378.107 493.71 378 484.919 377.987 476.345L447.672 426.279Z" fill="white"/>
<path d="M395.306 580.678C392.727 580.665 385.359 579.82 382.283 576.097C379.88 573.192 379.385 570.166 379.673 567.557C379.748 567.651 379.824 567.745 379.901 567.84C384.606 573.524 395.298 573.541 395.298 573.541H427.973C427.973 573.541 433.941 572.969 437.993 567.364C437.786 569.791 437.591 571.408 437.418 572.02C434.863 579.361 428.691 580.542 427.782 580.678H395.306Z" fill="#D7D1DA"/>
<path d="M381.337 501.026C381.282 498.075 381.233 495.094 381.195 492.102C400.812 489.802 419.474 483.054 432.437 472.335C435.265 469.996 437.825 467.466 440.058 464.753C440.344 464.98 440.683 465.09 441.02 465.09C441.471 465.09 441.919 464.892 442.226 464.514C442.441 464.246 442.655 463.976 442.865 463.702C442.699 467.76 442.528 471.994 442.351 476.338C442.185 480.466 442.006 484.83 441.824 489.334C440.118 489.207 438.377 489.148 436.608 489.148C415.38 489.148 390.392 497.656 381.337 501.026Z" fill="#D7D1DA"/>
<path d="M427.971 586.857H395.295C394.798 586.857 383.083 586.766 377.518 580.034C370.675 571.753 373.814 562.281 376.895 557.623C376.595 550.715 374.957 511.521 374.896 476.346C374.893 474.64 376.273 473.255 377.98 473.251H377.986C379.689 473.251 381.072 474.631 381.075 476.336C381.145 514.738 383.094 557.975 383.114 558.406C383.147 559.138 382.92 559.858 382.475 560.437C382.223 560.765 376.257 568.809 382.281 576.097C385.36 579.821 392.726 580.666 395.304 580.678H427.78C428.69 580.542 434.864 579.362 437.417 572.02C438.654 567.663 440.88 512.705 442.355 476.338C443.281 453.425 444.084 433.636 444.587 426.076C444.703 424.372 446.177 423.088 447.878 423.198C449.579 423.311 450.869 424.785 450.755 426.487C450.255 433.967 449.455 453.717 448.529 476.588C445.917 541.001 444.537 570.361 443.254 574.051C439.216 585.662 428.713 586.801 428.267 586.844C428.168 586.854 428.068 586.857 427.971 586.857Z" fill="#371A45"/>
<path d="M367.458 471.686C366.77 482.632 366.43 493.686 366.267 504.278C365.735 537.232 366.863 565.737 364.412 572.767C360.984 582.639 352.054 583.497 352.054 583.497H321.533C321.533 583.497 301.987 584.547 296.387 579.396C290.785 574.243 291.333 566.92 295.423 561.853C298.928 557.494 303.656 555.671 303.656 555.671C303.656 555.671 300.335 530.04 296.55 494.682C294.602 476.421 292.523 455.556 290.725 434.296L367.458 471.686Z" fill="white"/>
<path d="M317.367 580.514C310.083 580.514 301.155 579.586 298.477 577.124C295.199 574.108 294.79 570.367 295.933 567.15C296.079 567.297 296.23 567.441 296.386 567.585C300.365 571.246 311.378 571.776 317.427 571.776C319.891 571.776 321.529 571.688 321.529 571.688H352.052C352.052 571.688 358.446 571.073 362.491 564.902C362.269 568.07 361.951 570.436 361.495 571.751C358.942 579.092 352.768 580.272 351.859 580.408H321.532C321.476 580.408 321.423 580.409 321.365 580.413C320.135 580.477 318.781 580.514 317.367 580.514Z" fill="#D7D1DA"/>
<path d="M363.188 503.3C339.548 496.13 309.326 494.927 299.667 494.725C298.72 485.872 297.743 476.411 296.784 466.602C297.164 467.05 297.549 467.492 297.942 467.926C298.243 468.257 298.662 468.432 299.09 468.432C299.386 468.432 299.688 468.347 299.953 468.169C299.991 468.142 300.028 468.115 300.066 468.086C310.149 480.085 325.923 487.567 343.535 490.92C349.98 492.148 356.676 492.822 363.423 492.961C363.322 496.443 363.246 499.894 363.188 503.3Z" fill="#D7D1DA"/>
<path d="M316.957 586.702C310.24 586.702 299.009 586.006 294.298 581.672C287.933 575.821 287.407 566.873 293.015 559.912C295.434 556.911 298.35 554.958 300.314 553.871C298.884 542.578 292.308 489.6 287.646 434.561C287.503 432.863 288.763 431.367 290.466 431.221C292.151 431.073 293.658 432.339 293.804 434.04C299.022 495.654 306.645 554.684 306.722 555.272C306.907 556.686 306.099 558.04 304.773 558.553C304.744 558.564 300.739 560.178 297.829 563.791C294.893 567.43 293.958 572.964 298.479 577.124C301.676 580.063 313.79 580.814 321.366 580.412C321.423 580.409 321.478 580.407 321.532 580.407H351.86C352.77 580.271 358.943 579.092 361.497 571.75C362.995 567.439 363 551.803 363 533.699C363.004 515.708 363.006 493.319 364.378 471.491C364.482 469.786 365.972 468.499 367.655 468.6C369.357 468.708 370.651 470.174 370.545 471.879C369.187 493.512 369.183 515.796 369.181 533.699C369.178 553.892 369.176 568.483 367.334 573.78C363.295 585.392 352.792 586.531 352.346 586.573C352.249 586.584 352.148 586.588 352.051 586.588H321.616C320.737 586.633 319.07 586.702 316.957 586.702Z" fill="#371A45"/>
<path d="M276.93 411.223C306.148 444.962 358.372 356.5 358.372 356.5C358.372 356.5 364.624 297.03 347.024 300.931C338.527 302.813 307.511 322.58 287.279 346.856C272.122 365.044 259.872 391.528 276.93 411.223Z" fill="white"/>
<path d="M348.629 303.837C348.337 303.837 348.027 303.873 347.692 303.947C340.181 305.611 309.683 324.8 289.652 348.836C282.442 357.485 260.387 387.402 279.265 409.199C283.518 414.109 288.354 416.247 294.067 415.73C319.519 413.427 351.701 361.545 355.37 355.498C357.065 338.651 357.281 310.542 350.723 304.688C350.075 304.109 349.417 303.837 348.629 303.837ZM292.405 421.986C285.606 421.986 279.621 419.054 274.594 413.245C259.702 396.051 263.557 370.493 284.903 344.88C304.937 320.844 336.746 300.045 346.356 297.914C349.529 297.209 352.462 297.958 354.838 300.078C366.008 310.048 361.946 352.063 361.445 356.821C361.399 357.261 361.26 357.688 361.033 358.07C359.56 360.564 324.636 419.17 294.624 421.885C293.873 421.953 293.135 421.986 292.405 421.986Z" fill="#371A45"/>
<path d="M437.964 326.4C451.575 337.355 484.431 373.625 469.303 412.175C450.925 459.005 378.09 356.501 378.09 356.501L377.835 281.58C377.835 281.58 422.521 313.972 437.964 326.4Z" fill="white"/>
<path d="M381.176 355.504C395.464 375.414 435.031 423.784 455.79 421.244C460.481 420.67 463.959 417.333 466.428 411.046C480.055 376.319 452.502 342.064 436.026 328.805C423.854 319.008 392.995 296.439 380.946 287.659L381.176 355.504ZM454.268 427.515C441.997 427.515 425.292 416.178 404.549 393.766C388.516 376.447 375.698 358.468 375.573 358.288C375.202 357.769 375.002 357.147 375.002 356.507L374.745 281.589C374.742 280.427 375.391 279.36 376.427 278.828C377.461 278.299 378.707 278.395 379.649 279.077C380.097 279.402 424.577 311.657 439.902 323.993C457.6 338.236 487.12 375.235 472.178 413.303C468.855 421.779 463.592 426.514 456.539 427.378C455.798 427.469 455.042 427.515 454.268 427.515Z" fill="#371A45"/>
<path d="M312.486 332.345C292.443 368.047 272.344 433.14 299.153 466.964C331.991 508.398 431.051 498.282 447.794 451.296C459.377 418.791 442.278 369.706 430.699 338.607C430.699 338.607 419.459 286.646 367.623 287.974C339.609 288.69 312.486 332.345 312.486 332.345Z" fill="white"/>
<path d="M451.636 427.761C451.505 436.167 450.346 444.139 447.797 451.3C431.049 498.283 331.99 508.395 299.15 466.967C290.738 456.351 286.946 442.656 286.327 427.761C284.952 395.178 298.735 356.844 312.483 332.342C312.483 332.342 339.607 288.687 367.627 287.969C419.461 286.649 430.699 338.608 430.699 338.608C439.731 362.858 452.107 398.036 451.636 427.761Z" fill="white"/>
<path d="M366.055 492.988C339.953 492.988 314.318 485.047 300.064 468.087C300.683 467.583 300.823 466.676 300.361 466.006C295.674 459.04 292.76 451.2 291.139 443.064C294.796 443.526 299.971 444.004 305.765 444.004C307.197 444.004 308.67 443.975 310.164 443.908V449.001C310.164 456.242 316.057 462.133 323.296 462.133H386.492H395.602C402.842 462.133 408.735 456.242 408.735 449.001V444.031C410.897 444.114 413.886 444.195 417.318 444.195C426.766 444.195 439.582 443.577 447.813 440.685C447.343 444.561 446.548 448.38 445.208 452.068C443.777 455.784 441.908 459.341 439.73 462.691C439.293 463.347 439.425 464.244 440.052 464.748C440.054 464.75 440.057 464.752 440.06 464.753C424.958 483.074 395.216 492.988 366.055 492.988Z" fill="#D7D1DA"/>
<path d="M439.732 462.691C441.907 459.341 443.778 455.785 445.21 452.068C448.387 443.316 448.499 433.825 448.477 424.6C448.53 416.52 447.497 408.487 446.07 400.522C442.094 379.042 435.217 358.267 429.249 337.272C428.76 335.53 431.297 334.441 432.144 336.194C436.831 346.201 440.863 356.514 444.3 367.059C449.42 382.967 453.133 399.383 454.371 416.1C454.767 421.709 455.088 427.423 454.398 433.024C453.443 441.448 451.366 450.153 447.027 457.5C445.595 459.956 444.004 462.308 442.228 464.513C441.689 465.179 440.718 465.283 440.053 464.749C439.425 464.244 439.293 463.347 439.732 462.691Z" fill="#371A45"/>
<path d="M341.846 489.037C352.13 489.934 362.424 490.318 372.705 489.753C377.688 489.514 383.094 488.964 388.035 488.352C393.134 487.681 398.212 486.803 403.338 485.848C404.186 485.687 405.005 486.245 405.161 487.093C405.293 487.809 404.91 488.504 404.273 488.794C399.39 491.013 394.233 492.606 388.989 493.76C379.906 495.763 370.224 496.443 360.945 495.816C354.254 495.326 347.569 494.217 341.212 492.061C340.396 491.786 339.961 490.902 340.238 490.088C340.471 489.395 341.147 488.974 341.846 489.037Z" fill="#371A45"/>
<path d="M313.836 333.102C307.26 346.252 302.369 360.037 297.942 373.984C291.824 393.215 288.217 413.671 289.838 433.85C290.834 445.221 293.926 456.438 300.364 466.005C300.851 466.713 300.666 467.688 299.953 468.168C299.306 468.603 298.45 468.486 297.942 467.925C293.825 463.397 290.608 458.019 288.318 452.31C277.513 425.103 285.188 390.205 295.016 363.614C299.505 352.497 304.788 341.718 311.142 331.589C312.168 329.998 314.693 331.324 313.836 333.102Z" fill="#371A45"/>
<path d="M235.263 213.697C235.279 228.288 237.54 242.419 243.824 248.093C248.337 252.168 283.175 257.343 283.175 257.343L269.445 163.413C269.445 163.413 267.054 163.725 263.655 164.355C256.594 165.673 245.176 168.405 242.012 172.705C238.573 177.373 235.249 195.882 235.263 213.697Z" fill="white"/>
<path d="M249.022 250.421C246.528 249.632 244.659 248.839 243.825 248.089C237.546 242.415 235.285 228.296 235.269 213.705C237.483 218.009 240.543 220.493 243.403 220.76C243.635 223.903 244.008 227.036 244.527 230.143C244.81 232.192 245.14 234.225 245.52 236.243C245.52 236.246 245.52 236.249 245.521 236.252C245.528 236.285 245.535 236.326 245.541 236.359C245.543 236.364 245.543 236.367 245.543 236.373C245.549 236.409 245.556 236.439 245.563 236.475C245.564 236.483 245.566 236.488 245.566 236.493C245.573 236.527 245.579 236.56 245.586 236.592C245.586 236.598 245.589 236.609 245.589 236.617C245.596 236.648 245.601 236.676 245.607 236.706C245.609 236.716 245.61 236.725 245.614 236.738C245.619 236.766 245.624 236.793 245.629 236.821C245.632 236.835 245.634 236.846 245.637 236.862C245.641 236.884 245.645 236.909 245.65 236.934C245.653 236.951 245.657 236.967 245.66 236.983C245.663 237.005 245.669 237.027 245.674 237.047C245.677 237.069 245.68 237.088 245.684 237.107C245.688 237.126 245.692 237.143 245.695 237.162C245.699 237.184 245.703 237.209 245.709 237.228C245.712 237.245 245.715 237.261 245.717 237.278C245.722 237.302 245.727 237.327 245.731 237.352C245.735 237.366 245.737 237.377 245.74 237.387C245.745 237.415 245.751 237.448 245.756 237.476C245.758 237.481 245.76 237.495 245.762 237.5C245.768 237.533 245.774 237.567 245.781 237.599C245.781 237.602 245.783 237.607 245.784 237.613C245.791 237.649 245.798 237.684 245.806 237.721C245.806 237.723 245.806 237.726 245.806 237.728C246.665 242.03 247.741 246.265 249.022 250.421Z" fill="#D7D1DA"/>
<path d="M274.679 156.513L268.655 157.288C268.409 157.319 262.553 158.079 256.023 159.669C242.824 162.883 238.864 166.558 237.034 169.045C232.279 175.501 229.621 194.108 229.164 208.665C228.684 223.975 230.119 244.04 239.682 252.677C241.808 254.596 246.228 256.853 264.012 260.314C273.312 262.126 281.905 263.406 282.266 263.462L290.493 264.684L289.29 256.454L275.557 162.523L274.679 156.513ZM269.443 163.416L283.175 257.347C283.175 257.347 248.337 252.165 243.824 248.093C229.874 235.489 235.757 181.198 242.01 172.707C246.7 166.337 269.443 163.416 269.443 163.416Z" fill="#371944"/>
<path d="M498.353 224.604C491.578 294.007 429.825 344.784 360.415 338.011C291.012 331.239 240.236 269.484 247.008 200.077C253.781 130.671 315.535 79.8961 384.942 86.6672C454.349 93.4414 505.123 155.195 498.353 224.604Z" fill="white"/>
<path d="M378.798 335.393C402.611 332.627 425.103 323.672 444.041 309.154C452.353 302.778 459.674 295.57 465.91 287.688C466.678 288.214 467.52 288.596 468.433 288.816C468.622 288.861 468.813 288.887 469.004 288.897L469.224 288.91C463.85 295.654 457.727 301.881 450.912 307.488C430.198 324.518 405.102 334.143 378.798 335.393ZM362.831 330.132C358.477 330.132 354.091 329.918 349.695 329.49C337.975 328.347 326.527 325.681 315.667 321.57C305.115 316.057 295.543 309.108 287.166 301.022C283.784 297.747 280.566 294.262 277.533 290.572C274.734 287.167 272.134 283.642 269.741 280.018C267.983 277.345 266.328 274.605 264.783 271.803C273.078 283.811 283.855 294.265 296.497 302.461C296.502 302.464 296.504 302.467 296.509 302.47C296.539 302.49 296.57 302.506 296.6 302.525C296.608 302.532 296.618 302.538 296.626 302.545C296.653 302.561 296.683 302.58 296.707 302.597C296.721 302.603 296.734 302.613 296.747 302.623C296.762 302.633 296.777 302.642 296.792 302.651C296.818 302.668 296.846 302.684 296.873 302.704C296.882 302.71 296.889 302.713 296.898 302.719C311.233 311.933 327.942 318.253 346.144 320.676L346.151 320.68C346.196 320.683 346.248 320.689 346.294 320.696C346.3 320.696 346.3 320.699 346.307 320.699C346.352 320.705 346.4 320.711 346.446 320.718C346.449 320.718 346.455 320.718 346.458 320.718C346.533 320.728 346.604 320.738 346.679 320.748C346.689 320.748 346.702 320.751 346.712 320.751C346.747 320.757 346.789 320.761 346.825 320.767C346.838 320.767 346.848 320.767 346.86 320.77C346.896 320.773 346.931 320.779 346.967 320.786C346.98 320.786 346.996 320.789 347.012 320.789C347.032 320.793 347.055 320.796 347.074 320.799C347.1 320.802 347.129 320.806 347.155 320.809C347.178 320.812 347.201 320.812 347.223 320.816C347.239 320.819 347.256 320.819 347.272 320.822C347.301 320.825 347.334 320.829 347.366 320.835C347.382 320.835 347.402 320.838 347.417 320.838C347.447 320.844 347.479 320.847 347.508 320.851C347.528 320.854 347.541 320.857 347.56 320.857C347.583 320.861 347.615 320.864 347.638 320.867C347.661 320.87 347.686 320.874 347.709 320.877C347.725 320.877 347.748 320.88 347.767 320.884C347.797 320.887 347.825 320.89 347.855 320.893C347.874 320.897 347.89 320.897 347.906 320.9C347.929 320.903 347.958 320.906 347.981 320.906C348.004 320.909 348.023 320.912 348.046 320.916C348.072 320.919 348.095 320.922 348.117 320.922C348.137 320.925 348.156 320.929 348.175 320.932C348.205 320.935 348.231 320.939 348.26 320.942C348.276 320.942 348.296 320.945 348.311 320.948C348.344 320.952 348.373 320.955 348.405 320.958C348.422 320.962 348.438 320.962 348.454 320.965C348.483 320.968 348.519 320.971 348.548 320.974C348.561 320.974 348.577 320.977 348.593 320.977C348.623 320.98 348.648 320.983 348.678 320.987C348.694 320.99 348.71 320.99 348.723 320.993C348.755 320.997 348.787 321 348.817 321.003C348.833 321.006 348.843 321.007 348.859 321.01C348.895 321.013 348.927 321.016 348.963 321.02C348.973 321.023 348.989 321.023 349.001 321.026C349.037 321.03 349.069 321.033 349.105 321.036C349.122 321.039 349.128 321.039 349.144 321.039C349.177 321.042 349.209 321.045 349.245 321.052C349.255 321.052 349.264 321.052 349.273 321.055C349.31 321.058 349.338 321.061 349.374 321.065C349.384 321.065 349.397 321.065 349.406 321.068C349.442 321.071 349.477 321.075 349.517 321.078C349.527 321.081 349.539 321.084 349.552 321.084C349.588 321.088 349.623 321.091 349.659 321.094C349.672 321.098 349.682 321.098 349.691 321.098C349.727 321.104 349.769 321.107 349.805 321.11C349.815 321.11 349.821 321.11 349.827 321.113C349.864 321.116 349.902 321.12 349.935 321.123C349.944 321.123 349.948 321.123 349.957 321.126C349.996 321.129 350.035 321.133 350.074 321.136C350.081 321.139 350.093 321.139 350.099 321.139C350.136 321.143 350.181 321.149 350.217 321.152C350.226 321.152 350.232 321.152 350.242 321.152C350.281 321.159 350.32 321.162 350.362 321.166C350.368 321.169 350.371 321.169 350.381 321.169C350.424 321.172 350.463 321.178 350.508 321.181C354.56 321.577 358.584 321.771 362.565 321.771C403.113 321.771 439.363 301.725 459.344 270.814C459.726 275.489 460.585 279.555 461.997 282.652C455.874 290.611 448.601 297.867 440.283 304.245C418.242 321.146 391.143 330.132 362.831 330.132ZM260.796 160.851C263.512 154.956 266.687 149.284 270.294 143.886C272.599 140.452 275.07 137.142 277.697 133.971C277.898 135.616 278.15 137.265 278.445 138.898C271.609 145.422 265.658 152.792 260.796 160.851Z" fill="#D7D1DA"/>
<path d="M372.586 89.1564C310.006 89.1564 256.285 136.824 250.083 200.378C246.888 233.126 256.638 265.154 277.534 290.571C298.43 315.985 327.971 331.741 360.717 334.937C364.794 335.334 368.862 335.531 372.905 335.531C401.34 335.532 428.656 325.783 450.91 307.486C476.324 286.589 492.082 257.049 495.278 224.302C501.871 156.701 452.243 96.3387 384.645 89.7421C380.594 89.3469 376.576 89.1564 372.586 89.1564ZM372.916 341.712C368.668 341.712 364.398 341.505 360.118 341.087C289.127 334.161 237.006 270.77 243.933 199.779C250.86 128.783 314.255 76.6593 385.245 83.5936C456.232 90.5174 508.356 153.91 501.429 224.902C498.072 259.29 481.524 290.317 454.836 312.261C431.472 331.473 402.776 341.712 372.916 341.712Z" fill="#371A45"/>
<path d="M372.618 89.1547C346.395 89.1547 320.832 97.5068 299.56 113.211C271.501 133.914 253.466 165.687 250.082 200.378C250.02 201.013 249.966 201.655 249.913 202.294C249.173 211.366 249.422 220.414 250.643 229.255C256.073 268.691 280.441 303.232 315.829 321.654C329.802 328.926 344.905 333.396 360.719 334.939C393.466 338.136 425.493 328.385 450.912 307.488C476.328 286.589 492.086 257.05 495.279 224.302C501.879 156.7 452.246 96.3362 384.644 89.7397C380.631 89.3512 376.617 89.1547 372.618 89.1547ZM372.913 341.717C368.669 341.717 364.401 341.507 360.117 341.091C343.515 339.47 327.653 334.776 312.974 327.135C275.814 307.789 250.224 271.516 244.521 230.1C243.237 220.813 242.977 211.31 243.749 201.863C243.809 201.117 243.866 200.439 243.93 199.779C247.486 163.343 266.425 129.979 295.891 108.238C321.634 89.2333 353.374 80.4815 385.244 83.589C456.235 90.5173 508.357 153.911 501.433 224.902C498.076 259.29 481.529 290.314 454.837 312.262C431.469 331.475 402.771 341.717 372.913 341.717Z" fill="#371A45"/>
<path d="M315.668 321.571C326.526 325.682 337.975 328.347 349.696 329.49C382.688 332.71 414.854 323.744 440.282 304.247C465.647 284.798 481.269 257.189 484.262 226.503C487.256 195.825 477.266 165.717 456.139 141.733C434.958 117.688 405.127 102.677 372.142 99.4553C346.637 96.9705 321.481 101.772 299.371 113.353C271.421 134.06 253.458 165.766 250.081 200.381C250.019 201.015 249.966 201.66 249.913 202.294C249.908 202.358 249.892 202.498 249.885 202.564C249.832 202.919 249.798 203.265 249.764 203.623C248.931 212.158 249.222 220.755 250.629 229.17C250.635 229.202 250.638 229.23 250.642 229.258C256.064 268.633 280.368 303.128 315.668 321.571ZM362.833 336.312C358.28 336.312 353.696 336.091 349.097 335.64C336.767 334.439 324.725 331.628 313.302 327.285C313.19 327.241 313.08 327.192 312.973 327.137C275.827 307.797 250.242 271.542 244.525 230.145C243.036 221.21 242.73 212.08 243.614 203.024C243.655 202.6 243.696 202.185 243.755 201.769C243.814 201.061 243.869 200.416 243.93 199.782C247.485 163.347 266.423 129.98 295.89 108.239C296.014 108.147 296.146 108.064 296.285 107.993C319.519 95.772 345.96 90.6929 372.741 93.3046C407.29 96.6758 438.557 112.424 460.776 137.649C483.049 162.93 493.571 194.702 490.413 227.103C487.252 259.51 470.782 288.65 444.043 309.154C420.917 326.883 392.499 336.312 362.833 336.312Z" fill="#371A45"/>
<path d="M475.148 225.614C469.4 284.543 413.592 327.335 350.507 321.181C297.033 315.964 255.485 277.248 247.581 229.68C246.153 221.131 245.814 212.3 246.689 203.324C246.729 202.915 246.769 202.52 246.828 202.114C253.208 143.806 308.682 101.653 371.332 107.766C434.414 113.923 480.899 166.685 475.148 225.614Z" fill="#371A45"/>
<path d="M475.148 225.615C469.401 284.545 413.593 327.335 350.508 321.181C303.062 316.552 265.007 285.555 251.516 245.394C271.809 271.563 303.451 289.907 340.344 293.508C405.679 299.881 463.808 257.716 474.065 198.146C475.659 207.04 476.063 216.252 475.148 225.615Z" fill="#220F2D"/>
<path d="M273.8 231.202C265.736 214.451 263.885 198.334 271.117 179.85C271.835 178.032 272.644 176.181 273.535 174.311C273.739 173.879 273.95 173.453 274.171 173.031C274.162 173.02 274.171 173.014 274.187 173.004C276.264 169.339 279.175 164.624 282.914 159.579C294.177 144.356 312.896 126.1 338.674 124.421C340.931 124.273 343.158 124.203 345.339 124.203C389.781 124.203 418.519 153.234 415.87 154.735C415.87 154.735 390.27 143.558 360.351 143.558C348.183 143.558 335.302 145.405 323.134 150.605C323.089 150.624 323.044 150.645 322.999 150.66C314.145 154.455 302.43 163.812 296.76 171.513C289.262 181.701 285.613 189.811 282.681 197.077C273.773 219.179 273.8 231.202 273.8 231.202Z" fill="#9B8DA2"/>
<path d="M430.364 247.207C429.755 247.207 429.142 247.171 428.529 247.096C419.043 245.944 412.404 236.18 413.696 225.283C414.9 215.092 422.618 207.522 431.367 207.522C431.975 207.522 432.588 207.559 433.204 207.634C442.687 208.783 449.329 218.55 448.035 229.446C446.831 239.637 439.113 247.207 430.364 247.207Z" fill="#9B8DA2"/>
<path d="M426.589 271.418C426.511 271.418 426.432 271.418 426.355 271.416C422.412 271.269 419.335 267.476 419.482 262.945C419.625 258.508 422.809 255.005 426.647 255.005C426.724 255.005 426.804 255.007 426.881 255.01C430.824 255.156 433.898 258.95 433.752 263.478C433.718 264.577 433.496 265.618 433.127 266.56C431.021 268.25 428.862 269.867 426.639 271.418C426.623 271.418 426.607 271.418 426.589 271.418Z" fill="#9B8DA2"/>
<path d="M426.638 271.421C428.862 269.867 431.019 268.251 433.124 266.562C431.999 269.42 429.505 271.397 426.638 271.421Z" fill="#918796"/>
<path d="M505.237 207.867L494.64 256.472L488.037 286.748L470.788 285.89L469.157 285.806C461.774 284.04 459.979 263.383 465.144 239.712C465.258 239.179 465.383 238.633 465.507 238.104C470.763 215.246 480.645 198.348 487.854 200.087L489.352 200.756L505.237 207.867Z" fill="white"/>
<path d="M484.409 283.479L469.682 282.745C466.243 281.373 462.721 266.075 467.977 241.245C468.765 244.041 470.107 246.998 472.35 248.001C472.77 248.191 473.191 248.278 473.611 248.278C478.112 248.278 482.359 238.301 482.359 238.301L484.867 242.016C484.686 242.786 484.507 243.56 484.338 244.345C484.203 244.955 484.073 245.568 483.951 246.165C482.383 253.885 481.628 261.193 481.628 267.428C481.628 274.452 482.582 280.115 484.409 283.479Z" fill="#D7D1DA"/>
<path d="M469.681 282.745L485.574 283.538L501.683 209.661L486.929 203.052C486.311 203 485.59 203.359 485.069 203.686C479.946 206.897 472.492 220.531 468.164 240.378C462.639 265.719 466.206 281.36 469.681 282.745ZM488.04 289.843C487.987 289.843 487.934 289.843 487.883 289.84L469.004 288.898C468.814 288.889 468.62 288.861 468.433 288.814C457.734 286.233 457.164 261.831 462.127 239.058C466.467 219.155 474.187 203.215 481.787 198.451C484.654 196.653 487.059 196.713 488.576 197.075C488.763 197.122 488.944 197.184 489.119 197.262L506.501 205.047C507.836 205.645 508.569 207.099 508.258 208.525L491.056 287.413C490.744 288.836 489.484 289.843 488.04 289.843Z" fill="#371A45"/>
<path d="M510.046 244.578L510.03 244.603C509.725 246.471 509.353 248.36 508.937 250.285C504.188 272.059 494.834 288.395 488.038 286.748C481.443 285.161 479.68 267.187 483.953 246.169C484.073 245.567 484.205 244.956 484.337 244.345C489.087 222.57 498.449 206.235 505.236 207.866C511.428 209.365 513.346 225.269 510.046 244.578Z" fill="white"/>
<path d="M489.007 286.86C488.679 286.86 488.356 286.825 488.04 286.748C483.869 285.743 481.629 278.177 481.632 267.429C481.632 261.193 482.386 253.883 483.953 246.164C485.515 253.62 488.973 266.393 494.499 266.393C495.043 266.393 495.606 266.271 496.194 266.002C500.002 264.256 505.744 253.595 510.034 244.603C509.728 246.471 509.359 248.357 508.939 250.282C504.411 271.042 495.7 286.86 489.007 286.86Z" fill="#D7D1DA"/>
<path d="M504.281 210.849C503.799 210.849 503.228 211.138 502.808 211.401C498.136 214.329 491.332 226.812 487.365 245.005C482.215 268.614 485.589 282.983 488.768 283.75C489.285 283.87 489.982 283.531 490.477 283.224C495.148 280.295 501.955 267.813 505.923 249.619C511.069 226.01 507.694 211.642 504.518 210.875C504.442 210.856 504.364 210.849 504.281 210.849ZM488.99 289.952C488.353 289.952 487.789 289.87 487.32 289.755C477.315 287.343 476.729 264.754 481.324 243.687C485.33 225.309 492.476 210.58 499.527 206.162C502.24 204.463 504.528 204.521 505.966 204.866C515.971 207.277 516.555 229.866 511.959 250.935C507.954 269.311 500.807 284.041 493.756 288.459C491.934 289.603 490.299 289.952 488.99 289.952Z" fill="#371A45"/>
<path d="M378.667 519.639C378.667 519.639 391.333 530.456 443.599 520.719L378.667 519.639Z" fill="white"/>
<path d="M405.704 527.077C384.159 527.077 377.544 521.728 377.161 521.402C376.19 520.569 376.074 519.108 376.904 518.133C377.727 517.17 379.172 517.048 380.141 517.853C380.415 518.06 393.577 527.679 443.174 518.441C444.431 518.209 445.643 519.037 445.878 520.296C446.111 521.554 445.282 522.764 444.023 522.999C427.795 526.021 415.275 527.077 405.704 527.077Z" fill="#371A45"/>
<path d="M299.055 517.357C299.055 517.357 313.58 528.457 366.109 520.72L299.055 517.357Z" fill="white"/>
<path d="M332.641 525.772C306.647 525.772 298.111 519.553 297.647 519.197C296.63 518.421 296.438 516.966 297.213 515.95C297.986 514.939 299.426 514.74 300.444 515.501C300.704 515.687 315.561 525.822 365.77 518.427C367.041 518.239 368.215 519.116 368.4 520.382C368.588 521.648 367.713 522.826 366.446 523.011C352.811 525.021 341.672 525.772 332.641 525.772Z" fill="#371A45"/>
<path d="M286.243 439.184C286.243 439.184 278.438 436.591 279.81 429.073C281.067 422.195 287.556 421.336 287.556 421.336C287.556 421.336 310.491 424.428 332.758 418.306C332.758 418.306 344.199 430.402 332.302 436.029C314.053 444.663 286.243 439.184 286.243 439.184Z" fill="white"/>
<path d="M305.861 437.797C296.352 437.797 288.474 436.45 287.062 436.191C286.078 435.808 282.22 434.031 282.808 429.887C284.501 431.289 286.242 431.864 286.242 431.864C286.242 431.864 294.95 433.58 305.813 433.58C307.233 433.58 308.688 433.553 310.165 433.487V437.701C308.706 437.769 307.263 437.797 305.861 437.797Z" fill="#D7D1DA"/>
<path d="M287.063 436.19C289.691 436.67 314.715 440.931 330.98 433.236C334.127 431.747 334.441 430.094 334.546 429.551C335.024 427.036 333.112 423.772 331.637 421.798C311.241 426.941 291.159 424.886 287.65 424.466C286.616 424.709 283.556 425.76 282.85 429.626C282.06 433.956 286.058 435.8 287.063 436.19ZM305.763 444.004C294.948 444.004 286.289 442.34 285.645 442.213C285.517 442.189 285.393 442.156 285.269 442.114C281.687 440.927 275.301 436.555 276.769 428.516C278.085 421.328 284.134 418.674 287.151 418.276C287.422 418.24 287.696 418.24 287.967 418.276C288.19 418.305 310.574 421.2 331.937 415.328C333.034 415.024 334.217 415.353 335.003 416.184C335.714 416.937 341.924 423.744 340.621 430.684C340.166 433.1 338.585 436.475 333.623 438.823C325.058 442.873 314.679 444.004 305.763 444.004Z" fill="#371A45"/>
<path d="M397.859 455.577C398.983 453.642 399.628 451.395 399.628 449V441.096C400.578 441.869 401.591 442.476 402.555 442.931V449C402.555 452.044 400.589 454.637 397.859 455.577Z" fill="#B7ACBC"/>
<path d="M332.404 404.54C328.573 404.54 325.453 407.658 325.453 411.491V449.001C325.453 452.834 328.573 455.953 332.404 455.953H395.603C399.434 455.953 402.554 452.834 402.554 449.001V411.491C402.554 407.658 399.434 404.54 395.603 404.54H332.404ZM395.603 462.133H332.404C325.164 462.133 319.271 456.241 319.271 449.001V411.491C319.271 404.249 325.164 398.359 332.404 398.359H395.603C402.841 398.359 408.734 404.249 408.734 411.491V449.001C408.734 456.241 402.841 462.133 395.603 462.133Z" fill="#371A45"/>
<path d="M396.539 411.494V449C396.539 454.546 392.043 459.043 386.496 459.043H323.298C317.752 459.043 313.256 454.546 313.256 449V411.494C313.256 405.949 317.752 401.451 323.298 401.451H386.496C392.043 401.451 396.539 405.949 396.539 411.494Z" fill="white"/>
<path d="M386.495 455.953H349.852V442.986C360.655 438.729 362.852 429.567 362.927 429.246C362.927 430.006 363.014 430.745 363.17 431.455C363.192 431.548 363.214 431.64 363.236 431.732C363.236 431.732 363.238 431.73 363.238 431.729C364.346 436.091 368.3 439.317 373.009 439.317C377.718 439.317 381.674 436.086 382.782 431.719C382.782 431.723 382.782 431.726 382.784 431.732C382.978 430.96 383.085 430.149 383.091 429.316C383.096 430.305 383.294 440.353 389.032 440.354C389.126 440.354 389.22 440.35 389.317 440.346C390.979 440.251 392.358 438.812 393.447 436.966V449C393.447 452.833 390.328 455.953 386.495 455.953ZM344.444 455.953H323.297C319.464 455.953 316.346 452.833 316.346 449V435.335C319.922 439.5 326.747 445.121 337.512 445.121C337.577 445.121 337.642 445.121 337.705 445.121C340.181 445.104 342.419 444.885 344.444 444.511V455.953Z" fill="#D7D1DA"/>
<path d="M323.298 404.538C319.466 404.538 316.345 407.656 316.345 411.488V449C316.345 452.833 319.466 455.953 323.298 455.953H386.496C390.33 455.953 393.446 452.833 393.446 449V411.488C393.446 407.656 390.33 404.538 386.496 404.538H323.298ZM386.496 462.132H323.298C316.058 462.132 310.167 456.241 310.167 449V411.488C310.167 404.249 316.058 398.359 323.298 398.359H386.496C393.738 398.359 399.627 404.249 399.627 411.488V449C399.627 456.241 393.738 462.132 386.496 462.132Z" fill="#371A45"/>
<path d="M383.09 429.236C383.09 434.803 378.578 439.317 373.01 439.317C367.44 439.317 362.928 434.803 362.928 429.236C362.928 423.669 367.44 419.154 373.01 419.154C378.578 419.154 383.09 423.669 383.09 429.236Z" fill="#22A7F0"/>
<path d="M383.091 429.317C383.091 429.265 383.091 429.239 383.091 429.239H383.089C383.089 429.237 383.089 429.237 383.089 429.237C383.089 425.594 381.159 422.402 378.262 420.63C381.159 422.402 383.091 425.594 383.091 429.24C383.091 429.267 383.091 429.292 383.091 429.317Z" fill="white"/>
<path d="M382.785 431.733C382.783 431.728 382.783 431.725 382.781 431.72C382.982 430.927 383.088 430.095 383.088 429.239H383.09C383.09 429.239 383.09 429.265 383.09 429.316C383.084 430.151 382.976 430.962 382.785 431.733ZM363.236 431.733C363.215 431.642 363.193 431.549 363.17 431.457C363.193 431.549 363.215 431.64 363.238 431.729C363.238 431.731 363.236 431.733 363.236 431.733Z" fill="#F3F1F4"/>
<path d="M363.237 431.729C363.214 431.639 363.193 431.548 363.171 431.456C363.014 430.744 362.93 430.002 362.93 429.239C362.93 423.667 367.444 419.154 373.008 419.154C374.933 419.154 376.733 419.695 378.263 420.63C381.158 422.4 383.09 425.594 383.09 429.236C383.09 429.236 383.09 429.236 383.09 429.238C383.09 430.093 382.982 430.926 382.782 431.719C381.661 427.363 377.713 424.147 373.008 424.147C368.307 424.147 364.356 427.367 363.237 431.729Z" fill="#BCE4FA"/>
<path d="M383.09 429.24C383.09 434.804 378.577 439.317 373.006 439.317C367.442 439.317 362.93 434.804 362.93 429.24C362.93 428.131 363.11 427.064 363.442 426.062C364.777 430.068 368.551 432.966 373.006 432.966C377.468 432.966 381.243 430.068 382.578 426.062C382.909 427.064 383.09 428.131 383.09 429.24Z" fill="#1C7AEA"/>
<path d="M373.008 421.86C368.94 421.86 365.631 425.168 365.631 429.236C365.631 433.305 368.94 436.615 373.008 436.615C377.074 436.615 380.386 433.305 380.386 429.236C380.386 425.168 377.074 421.86 373.008 421.86ZM373.008 442.021C365.96 442.021 360.223 436.287 360.223 429.236C360.223 422.186 365.96 416.451 373.008 416.451C380.056 416.451 385.794 422.186 385.794 429.236C385.794 436.287 380.056 442.021 373.008 442.021Z" fill="#371A45"/>
<path d="M347.146 461.745C345.654 461.745 344.444 460.536 344.444 459.042V438.639C344.444 436.426 343.021 434.512 340.907 433.868C336.496 432.531 333.534 428.532 333.534 423.926V401.45C333.534 399.953 334.745 398.745 336.238 398.745C337.73 398.745 338.941 399.953 338.941 401.45V423.926C338.941 426.136 340.361 428.051 342.478 428.695C346.888 430.034 349.851 434.029 349.851 438.639V459.042C349.851 460.536 348.64 461.745 347.146 461.745Z" fill="#371A45"/>
<path d="M405.647 440.788C405.647 440.788 397.671 438.777 398.489 431.177C399.236 424.228 405.647 422.896 405.647 422.896C405.647 422.896 435.913 425.066 451.206 418.896C451.206 418.896 461.341 426.257 451.656 435.166C443.134 443.004 405.647 440.788 405.647 440.788Z" fill="white"/>
<path d="M416.95 438.013C413.065 438.013 409.354 437.906 406.159 437.724C405.109 437.394 401.093 435.844 401.559 431.51C401.579 431.344 401.6 431.183 401.625 431.028C403.333 432.38 405.467 433.091 407.648 433.181C409.678 433.265 413.101 433.375 417.188 433.375C419.087 433.375 421.126 433.351 423.235 433.29C426.649 433.929 430.129 434.303 433.63 434.303C439.671 434.303 445.772 433.193 451.695 430.434C451.173 431.244 450.464 432.065 449.564 432.891C445.348 436.769 430.127 438.013 416.95 438.013Z" fill="#D7D1DA"/>
<path d="M406.164 437.723C420.195 438.517 444.107 437.911 449.565 432.889C451.791 430.846 452.861 428.84 452.751 426.928C452.644 425.063 451.453 423.443 450.521 422.445C435.377 427.628 410.043 426.273 405.95 426.013C404.916 426.346 401.978 427.625 401.561 431.508C401.097 435.843 405.113 437.393 406.164 437.723ZM417.319 444.193C411.373 444.193 406.761 443.95 405.462 443.872C405.271 443.861 405.079 443.831 404.891 443.784C401.232 442.861 394.542 438.97 395.418 430.846C396.198 423.581 402.037 420.489 405.017 419.87C405.296 419.812 405.581 419.794 405.865 419.814C406.164 419.835 435.603 421.858 450.053 416.03C451.039 415.631 452.163 415.77 453.025 416.395C453.591 416.806 458.574 420.593 458.92 426.571C459.143 430.422 457.405 434.078 453.749 437.44C447.538 443.153 429.589 444.193 417.319 444.193Z" fill="#371A45"/>
<path d="M351.903 368.606C351.867 370.267 351.603 371.765 351.27 372.893C351.046 373.627 349.996 374.022 349.55 373.402C342.503 363.801 330.104 363.964 325.508 374.322C319.876 387.013 336.848 396.4 345.129 405.772C346.157 406.93 347.053 408.096 347.757 409.262C350.754 414.276 350.152 418.299 347.394 420.741C341.374 426.071 329.764 415.883 320.727 415.883C319.885 415.883 318.827 416.045 317.589 416.299C305.486 418.859 276.269 431.224 268.104 401.166C266.83 396.47 266.674 391.425 267.447 386.203C269.348 373.171 276.994 359.081 287.277 346.86L282.62 365.246C289.07 365.84 294.995 362.426 294.995 362.426C314.469 349.966 336.772 341.831 349.316 359.212C351.387 362.087 351.99 365.616 351.903 368.606Z" fill="white"/>
<path d="M292.675 417.894C288.972 417.894 285.322 417.311 282.041 415.692C276.567 413.014 273.288 407.585 271.509 401.798C270.771 399.522 270.337 397.177 270.165 394.792C272.914 400.747 277.969 406.741 287.169 406.741C289.04 406.741 291.082 406.493 293.311 405.947C311.674 401.449 310.09 376.538 318.672 366.595C323.094 361.465 327.777 359.694 332.063 359.694C337.872 359.694 342.951 362.941 345.682 365.484C342.934 363.858 339.997 363.085 337.138 363.085C330.818 363.085 324.897 366.865 322.318 373.53C320.179 378.395 321.205 384.324 324.04 388.604C327.826 394.527 333.102 398.629 338.027 403.153C336.135 402.677 334.059 402.34 331.965 402.34C328.998 402.34 326.006 403.021 323.485 404.951C320.944 406.898 319.356 409.839 318.384 413.012C315.517 413.453 312.518 414.433 309.865 415.071C306.605 415.93 303.395 416.702 300.184 417.228C297.724 417.625 295.187 417.894 292.675 417.894Z" fill="#D7D1DA"/>
<path d="M353.181 366.471C352.793 363.892 352.639 362.509 353.025 363.961C353.273 364.904 353.311 365.754 353.181 366.471Z" fill="#D8D8D8"/>
<path d="M289.644 348.847C281.304 358.864 274.076 370.488 271.145 383.207C269.743 389.475 269.584 395.88 271.51 401.798C273.289 407.585 276.569 413.015 282.041 415.694C287.545 418.409 294.097 418.212 300.183 417.228C303.392 416.703 306.607 415.929 309.864 415.072C313.199 414.27 317.084 412.925 320.565 412.792C324.613 412.798 328.074 414.124 331.603 415.508C335.345 416.821 342.302 420.772 345.288 418.444C346.453 417.388 346.821 416.157 346.517 414.438C345.557 410.141 342.171 407.091 338.793 403.866C333.658 399.052 328.024 394.838 324.038 388.605C321.205 384.324 320.178 378.396 322.318 373.531C326.109 363.73 337.12 360.174 346.009 365.683C348.462 367.185 350.502 369.132 352.188 371.406C352.232 371.463 352.205 371.423 352.133 371.332C352.078 371.264 352.019 371.196 351.953 371.137C350.707 369.889 348.554 370.28 348.099 371.931L348.13 371.817C348.53 370.366 348.661 368.772 348.574 367.213C348.442 364.813 347.759 362.581 346.305 360.729C344.313 358.055 341.729 355.823 338.813 354.433C325.838 348.644 310.067 357.1 298.679 363.708C295.525 365.748 291.85 367.021 288.122 367.281C286.326 367.336 280.663 367.655 281.407 364.83C281.593 364.194 282.141 363.767 282.759 363.705C287.418 363.037 291.777 361.212 295.476 358.521C311.203 348.388 336.303 337.807 350.729 355.611C355.1 360.541 356.197 367.589 354.448 373.82C353.628 376.775 349.645 378.166 347.299 375.842C347.024 375.542 346.694 375.136 346.449 374.804C341.375 368.144 331.76 367.491 328.337 375.973C323.472 387.231 345.293 398.136 350.379 407.541C356.343 416.651 350.924 427.796 339.326 424.921C333.835 423.539 329.801 421.086 324.79 419.641C321.761 418.651 319.303 418.931 316.337 419.764L311.433 421.047C297.533 424.934 280.086 427.195 270.484 413.689C259.28 397.845 264.059 377.718 272.928 362.1C276.361 355.952 280.423 350.222 284.913 344.869C286.01 343.561 287.959 343.391 289.265 344.488C290.577 345.586 290.746 347.54 289.644 348.847Z" fill="#371A45"/>
<path d="M307.842 389.744C314.216 387.816 318.777 382.175 321.399 376.27C321.797 375.318 322.153 374.351 322.54 373.398C324.176 369.648 329.704 371.851 328.294 375.706C325.291 381.803 320.848 387.422 314.748 390.628C313 391.556 311.135 392.27 309.187 392.659C308.888 392.719 308.637 392.76 308.251 392.805C307.407 392.904 306.643 392.301 306.544 391.457C306.441 390.614 307.042 389.894 307.842 389.744Z" fill="#371A45"/>
<path d="M267.719 401.873C267.692 401.873 267.666 401.873 267.642 401.871C266.363 401.832 265.36 400.761 265.4 399.482C266.196 374.477 284.355 365.119 294.108 360.092C296.31 358.957 298.21 357.979 299.171 357.197C300.161 356.389 301.621 356.537 302.429 357.527C303.239 358.521 303.091 359.98 302.099 360.789C300.764 361.877 298.763 362.908 296.232 364.213C286.697 369.125 270.741 377.349 270.032 399.628C269.991 400.883 268.962 401.873 267.719 401.873Z" fill="#371A45"/>
<path d="M462.092 423.584C434.136 448.087 398.33 423.801 383.767 417.358C381.692 416.439 380.046 415.883 378.917 415.883C369.879 415.883 358.278 426.071 352.26 420.741C349.502 418.3 349.091 414.384 351.898 409.261C352.082 408.93 352.283 408.598 352.499 408.265C358.502 399.143 377.119 391.047 375.791 377.906C375.102 371.139 368.915 365.863 361.814 366.534C356.284 367.07 352.768 371.263 351.232 372.947C350.845 373.371 350.164 373.272 349.905 372.754C348.437 369.896 346.876 364.009 350.337 359.214C350.622 358.82 350.914 358.432 351.215 358.062C363.902 342.203 385.632 350.252 404.657 362.424C410.792 365.965 423.56 379.073 449.23 372.584L466.209 362.565C470.042 369.796 472.42 377.135 473.503 384.187C473.517 384.311 473.535 384.442 473.556 384.573C473.611 384.937 473.658 385.322 473.695 385.724C475.703 401.413 471.279 415.528 462.092 423.584Z" fill="white"/>
<path d="M433.632 434.302C423.123 434.302 412.801 430.946 403.915 427.099C401.856 426.206 399.872 425.287 397.982 424.38C392.244 421.62 387.363 418.946 383.769 417.357C382.286 412.46 380.326 407.376 377.985 404.627C375.605 401.83 372.829 400.726 369.853 400.726C364.365 400.726 358.188 404.47 352.499 408.264C358.299 399.453 375.861 391.6 375.858 379.235C375.858 378.797 375.835 378.355 375.791 377.905C375.145 371.53 369.611 366.477 363.037 366.477C362.636 366.477 362.228 366.495 361.817 366.533C356.286 367.068 352.771 371.262 351.233 372.947C351.07 373.125 350.854 373.212 350.641 373.212C350.347 373.212 350.056 373.051 349.904 372.753C349.092 371.167 348.25 368.65 348.25 365.903C348.25 363.702 348.798 361.348 350.339 359.214C350.624 358.817 350.918 358.43 351.218 358.06C351.218 358.06 350.711 363.585 354.09 363.585C354.422 363.585 354.791 363.532 355.206 363.413C358.528 362.467 363.329 360.285 368.565 360.285C372.136 360.285 375.91 361.302 379.56 364.418C388.275 371.85 383.917 390.049 392.299 391.277C392.299 391.277 404.445 420.581 436.227 420.581C436.393 420.581 436.556 420.579 436.725 420.578C467.779 420.276 474.749 396.886 473.697 385.723C474.018 388.236 474.175 390.708 474.175 393.121C474.166 405.779 469.809 416.817 462.094 423.583C461.036 424.51 459.968 425.369 458.89 426.16C456.531 427.888 454.128 429.299 451.696 430.433C445.772 433.192 439.67 434.302 433.632 434.302Z" fill="#D7D1DA"/>
<path d="M449.614 374.083C437.469 378.828 423.285 377.814 412.071 371.008C408.871 369.211 406.075 367.008 403.01 365.133C395.848 360.62 388.202 356.568 380.325 354.233C373.35 352.149 365.467 351.466 359.178 355.303C356.358 357.076 353.701 359.573 352.155 362.58C351.005 365.192 351.46 368.61 352.722 371.204C352.729 371.222 352.815 371.379 352.682 371.142C351.975 369.894 350.084 369.607 349.023 370.628C351.061 368.142 355.359 364.483 359.592 363.709C367.187 361.873 375.454 366.482 378.032 373.821C380.777 380.981 377.239 388.601 372.236 393.66C366.762 399.741 359.565 403.678 354.942 410.182C353.329 412.69 351.691 417.402 355.126 418.937C357.251 419.626 359.459 418.79 361.876 417.984C366.945 416.185 372.954 412.81 378.974 412.79C382.205 412.979 384.726 414.427 387.484 415.679C401.582 422.791 416.31 430.688 432.273 431.189C443.688 431.689 455.232 427.012 462.742 418.527C470.19 409.737 472.074 397.513 470.654 386.189C469.691 378.436 467.111 370.909 463.472 363.99C461.667 360.336 466.945 357.552 468.944 361.113C478.883 379.773 481.765 405.245 467.433 422.552C447.169 444.49 419.573 438.666 395.759 426.734C392.032 424.928 388.373 422.993 384.785 421.238C382.938 420.399 380.83 419.249 378.93 418.97C369.721 419.015 357.49 431.121 349.167 421.974C345.845 418.192 346.622 412.547 348.822 408.486C354.003 398.033 370.584 392.017 372.655 380.538C373.66 374.087 367.291 368.307 360.995 369.88C358.699 370.378 356.53 371.974 354.845 373.753C354.345 374.262 353.879 374.841 353.335 375.376C352.051 376.596 349.915 376.748 348.478 375.791C347.438 375.169 346.897 374.034 346.477 372.999C344.793 368.881 344.379 364.293 346.161 360.023C348.18 355.702 351.736 352.199 355.767 349.667C363.738 344.743 373.722 345.318 382.202 347.878C390.41 350.343 397.884 354.404 405.049 358.906C408.507 361.001 411.776 363.596 415.213 365.609C418.539 367.559 422.032 369.079 425.691 370.097C433.012 372.186 440.889 372.115 448.857 371.087C450.624 370.854 451.367 373.408 449.614 374.083Z" fill="#371A45"/>
<path d="M392.098 392.803C382.987 391.4 376.186 383.929 372.215 376.04C370.359 372.39 375.571 369.525 377.653 373.063C378.481 374.992 379.165 377.001 380.22 378.825C382.88 383.682 387.096 388.121 392.509 389.742C394.472 390.127 394.087 392.983 392.098 392.803Z" fill="#371A45"/>
<path d="M460.452 427.278C459.992 427.278 459.526 427.141 459.125 426.858C458.074 426.123 457.82 424.679 458.555 423.629C464.575 415.036 466.543 406.814 464.393 399.193C460.2 384.306 441.699 376.112 441.511 376.031C440.341 375.521 439.803 374.158 440.308 372.984C440.821 371.812 442.182 371.272 443.357 371.777C444.199 372.145 464.037 380.9 468.847 397.914C471.404 406.945 469.218 416.493 462.351 426.29C461.9 426.934 461.18 427.278 460.452 427.278Z" fill="#371A45"/>
<path d="M428.864 556.221C428.864 556.221 409.415 549.404 385.696 556.402L428.864 556.221Z" fill="white"/>
<path d="M428.356 557.679C414.503 554.644 400.013 555.068 386.134 557.885C384.267 558.264 383.479 555.614 385.259 554.92C392.255 552.259 399.78 550.972 407.261 550.948C414.815 550.958 422.275 551.95 429.377 554.763C431.151 555.518 430.218 558.194 428.356 557.679Z" fill="#371A45"/>
<path d="M333.877 553.768C333.877 553.768 315.67 550.631 303.656 555.673L333.877 553.768Z" fill="white"/>
<path d="M333.616 555.29C324.049 554.489 313.66 554.557 304.799 558.545C301.051 560.166 298.517 554.792 302.175 552.939C307.479 550.974 313.016 550.505 318.537 550.536C323.821 550.638 328.954 551.189 334.139 552.245C334.977 552.419 335.512 553.236 335.337 554.072C335.171 554.875 334.409 555.398 333.616 555.29Z" fill="#371A45"/>
</svg>
