<svg width="501" height="193" viewBox="0 0 501 193" fill="none" xmlns="http://www.w3.org/2000/svg">
<path d="M81.0279 76.1244C78.4476 76.1244 76.2477 77.0229 74.4484 78.8227C72.65 80.668 71.7507 82.8691 71.7507 85.401C71.7507 89.0222 73.455 91.7193 76.8865 93.518C77.9274 94.0854 81.9266 95.2694 88.8604 97.1153C94.0437 98.6062 97.8295 100.499 100.244 102.819C103.652 106.037 105.379 110.746 105.379 116.876C105.379 122.981 103.225 128.211 98.9189 132.565C94.588 136.848 89.357 139.002 83.2517 139.002H65.1488C63.4443 139.002 61.977 138.387 60.723 137.132C59.469 135.925 58.8535 134.459 58.8535 132.683V132.565C58.8535 130.79 59.4687 129.299 60.723 128.045C61.977 126.791 63.4443 126.176 65.1488 126.176H83.938C86.5422 126.176 88.7421 125.276 90.541 123.478C92.3394 121.679 93.2387 119.478 93.2387 116.876C93.2387 113.468 91.5342 110.912 88.1027 109.255C87.322 108.9 83.3225 107.694 76.1054 105.659C70.9933 104.12 67.1835 102.18 64.7458 99.8363C61.3143 96.4529 59.6109 91.6488 59.6109 85.4013C59.6109 79.3196 61.7645 74.1133 66.047 69.8067C70.4017 65.475 75.631 63.2975 81.7378 63.2975H94.493C96.2436 63.2975 97.7348 63.9133 98.9888 65.1684C100.244 66.4221 100.859 67.9136 100.859 69.6642V69.8067C100.859 71.5573 100.244 73.0479 98.9888 74.2544C97.7348 75.4865 96.2436 76.1247 94.493 76.1247H81.0282L81.0279 76.1244ZM123.435 69.6636C123.435 67.913 122.82 66.4215 121.566 65.1678C120.312 63.9127 118.844 63.2969 117.116 63.2969H116.928C115.2 63.2969 113.732 63.9127 112.478 65.1678C111.224 66.4215 110.609 67.913 110.609 69.6636V107.599C110.609 116.236 113.685 123.643 119.838 129.771C125.967 135.924 133.398 139.001 142.083 139.001C150.72 139.001 158.128 135.924 164.281 129.771C170.41 123.643 173.486 116.236 173.486 107.599V69.6636C173.486 67.913 172.871 66.4215 171.617 65.1678C170.41 63.9127 168.942 63.2969 167.191 63.2969H167.05C165.298 63.2969 163.783 63.9127 162.529 65.1678C161.299 66.4215 160.66 67.913 160.66 69.6636V107.599C160.66 112.734 158.862 117.112 155.264 120.757C151.596 124.376 147.218 126.175 142.082 126.175C136.9 126.175 132.498 124.376 128.853 120.757C125.233 117.112 123.434 112.734 123.434 107.599V69.6636H123.435ZM219.373 126.033C226.307 126.033 232.199 123.595 237.051 118.698C241.949 113.799 244.386 107.906 244.386 101.019C244.386 94.0851 241.949 88.1695 237.051 83.2713C232.199 78.3958 226.307 75.9825 219.373 75.9825C212.439 75.9825 206.522 78.3958 201.624 83.2713C196.773 88.1695 194.335 94.0854 194.335 101.019C194.335 107.906 196.773 113.799 201.624 118.698C206.522 123.595 212.439 126.033 219.373 126.033ZM187.828 167.493C186.1 167.493 184.633 166.878 183.379 165.624C182.125 164.37 181.509 162.903 181.509 161.2V101.019C181.556 90.5604 185.271 81.6624 192.679 74.3255C200.015 66.9665 208.913 63.2972 219.373 63.2972C229.808 63.2972 238.73 66.9898 246.114 74.3966C253.521 81.7795 257.213 90.702 257.213 101.138C257.213 111.598 253.521 120.519 246.114 127.902C238.73 135.309 229.808 139.001 219.373 139.001C209.789 139.001 201.458 135.83 194.335 129.512V161.199C194.335 162.902 193.72 164.37 192.466 165.624C191.212 166.878 189.744 167.493 188.016 167.493H187.828V167.493ZM298.935 76.2652C306.696 76.2652 313.062 79.2479 318.056 85.211L274.181 105.02C273.991 103.835 273.897 102.605 273.897 101.351C273.897 94.4167 276.335 88.5012 281.186 83.6023C286.084 78.7038 292.001 76.2652 298.935 76.2652ZM333.32 85.4007C330.314 78.7982 325.747 73.4746 319.594 69.45C313.347 65.3561 306.46 63.2969 298.935 63.2969C288.474 63.2969 279.553 66.9895 272.17 74.3963C264.763 81.7792 261.071 90.7017 261.071 101.138C261.071 111.598 264.763 120.519 272.17 127.902C279.553 135.309 288.474 139.001 298.935 139.001C307.052 139.001 314.435 136.61 321.038 131.853C327.521 127.24 332.041 121.182 334.645 113.703C335.379 111.621 335.118 109.704 333.864 107.929C332.586 106.131 330.835 105.232 328.681 105.232C325.629 105.232 323.593 106.675 322.576 109.538C320.848 114.485 317.866 118.507 313.63 121.607C309.229 124.779 304.33 126.387 298.935 126.387C290.794 126.387 284.238 123.192 279.245 116.803C283.126 115.052 291.598 111.219 304.685 105.302C315.216 100.546 323.736 96.7126 330.195 93.8012C331.805 93.0671 332.917 91.8846 333.532 90.2511C334.124 88.5941 334.054 86.986 333.32 85.4001V85.4007ZM370.165 63.2969C362.262 63.2969 355.541 66.0663 350.004 71.6039C344.538 77.1654 341.768 83.8859 341.674 91.7904V132.683C341.674 134.458 342.289 135.924 343.543 137.132C344.797 138.386 346.265 139.001 347.992 139.001H348.181C349.909 139.001 351.376 138.386 352.631 137.132C353.885 135.924 354.5 134.458 354.5 132.683V91.7904C354.547 87.4357 356.062 83.7446 359.068 80.691C362.121 77.6384 365.812 76.1241 370.166 76.1241H374.118C375.869 76.1241 377.384 75.4857 378.614 74.2538C379.821 73.0473 380.436 71.5567 380.436 69.8061V69.6636C380.436 67.913 379.821 66.4215 378.614 65.1678C377.384 63.9127 375.869 63.2969 374.118 63.2969H370.166H370.165Z" fill="#FF6600"/>
<path fill-rule="evenodd" clip-rule="evenodd" d="M13.947 46.3745C35.4578 10.9011 76.2623 -5.73261 114.769 1.76918C79.4769 -2.45439 43.322 13.7419 23.7073 46.0874C-3.01748 90.1594 11.0823 147.521 55.1991 174.21C87.5786 193.798 127.129 191.418 156.448 171.341C125.8 195.811 81.926 199.955 46.4162 178.474C0.929416 150.956 -13.6072 91.8132 13.947 46.3742V46.3745Z" fill="#33CC33"/>
<path fill-rule="evenodd" clip-rule="evenodd" d="M18.2113 109.124C25.0659 146.181 54.3877 173.426 89.5312 179.417C58.1757 171.671 32.6648 146.293 26.4143 112.502C17.8982 66.4611 48.3613 22.2364 94.4549 13.7238C128.285 7.47539 161.132 22.202 179.583 48.6833C161.419 18.0415 125.464 0.426544 88.3636 7.27909C40.8392 16.0564 9.43072 61.6537 18.211 109.124L18.2113 109.124Z" fill="#33CC33"/>
<path d="M200.906 177.019C186.869 177.019 180.033 169.329 180.033 157.61C180.033 137.775 198.16 111.774 219.766 101.277C225.686 98.4692 231.301 97.0044 236.061 97.0044C239.235 97.0044 241.982 97.6758 244.118 98.9575C247.292 100.911 248.573 104.084 248.573 107.685C248.573 118 238.076 131.976 230.996 131.976C229.775 131.976 228.676 131.488 228.676 130.573C228.737 129.901 229.043 129.291 229.836 129.291C230.202 129.291 230.629 129.474 231.118 129.474C236.367 129.474 246.132 116.596 246.132 107.746C246.132 102.619 242.592 99.4457 236 99.4457C231.667 99.4457 226.418 100.849 220.864 103.535C199.625 113.789 182.535 139.361 182.535 157.732C182.535 168.23 188.578 174.517 200.784 174.517C222.085 174.028 245.461 156.085 265.174 141.07C265.418 140.887 265.663 140.826 265.907 140.826C266.578 140.826 267.188 141.314 267.188 142.047C267.188 142.413 267.005 142.779 266.7 143.023C249.123 156.451 223.367 176.164 202.493 176.958L200.906 177.019ZM276.98 153.155C274.173 153.094 273.257 151.324 273.257 149.005C273.257 148.211 273.379 147.418 273.562 146.624C271.426 148.577 267.032 152.361 263.675 152.361C261.722 152.361 260.44 151.141 260.44 149.249C260.44 144.976 266.3 138.08 272.159 138.08C273.746 138.08 275.76 138.751 276.797 139.789C277.041 139.667 277.286 139.545 277.53 139.545C278.201 139.545 278.811 140.094 278.811 140.826C278.811 141.07 278.75 141.314 278.567 141.559C277.957 142.474 275.699 146.746 275.699 149.127C275.699 150.164 276.065 150.653 276.98 150.653C280.642 150.653 293.337 143.207 297.121 141.009C297.365 140.887 297.549 140.826 297.793 140.826C298.525 140.826 299.013 141.498 299.013 142.169C299.013 142.535 298.83 142.901 298.403 143.145C293.826 145.77 281.436 153.155 276.98 153.155ZM263.858 150.164C266.361 150.164 274.051 142.718 275.088 141.62C274.478 141.009 273.196 140.643 272.098 140.643C267.154 140.887 263.065 146.624 263.065 149.188C263.065 149.859 263.37 150.164 263.858 150.164ZM279.085 184.221C278.414 184.221 277.742 183.794 277.742 183.061L277.864 182.512C283.846 168.596 290.071 155.535 295.686 144.305C297.517 140.704 298.738 137.286 298.738 134.418C298.738 128.314 292.634 124.713 274.324 124.591C273.409 124.591 273.104 123.92 273.104 123.249C273.104 122.699 273.531 122.089 274.324 122.089L307.282 122.333C310.09 117.328 313.752 110.981 315.4 108.479C315.644 108.051 316.01 107.868 316.376 107.868C317.048 107.868 317.597 108.357 317.597 108.845C317.597 109.15 317.475 109.394 317.292 109.699C315.766 111.958 312.592 118 310.09 122.333L341.522 122.76C342.376 122.821 342.743 123.432 342.743 124.103C342.682 124.713 342.315 125.263 341.583 125.263C337.555 125.08 322.297 124.958 308.747 124.836C299.226 141.986 289.217 162.432 280.184 183.488C279.94 184.038 279.512 184.221 279.085 184.221ZM301.24 133.502L305.879 124.774L293.489 124.652C298.127 126.422 300.935 129.23 301.24 133.502ZM322.515 153.155C319.769 153.094 318.853 151.324 318.853 149.005C318.853 148.211 318.975 147.418 319.159 146.624C317.022 148.577 312.628 152.361 309.271 152.361C307.318 152.361 306.036 151.08 306.036 149.188C306.036 144.976 311.835 138.08 317.694 138.08C319.342 138.08 321.356 138.751 322.393 139.789C322.637 139.667 322.882 139.545 323.065 139.545C323.736 139.545 324.407 140.216 324.407 140.887C324.407 141.07 324.285 141.314 324.163 141.559C323.553 142.474 321.234 146.746 321.234 149.127C321.234 150.164 321.6 150.653 322.576 150.653C326.238 150.653 338.933 143.207 342.717 141.009C342.961 140.887 343.145 140.826 343.389 140.826C344.06 140.826 344.609 141.498 344.609 142.169C344.609 142.535 344.426 142.901 343.938 143.145C339.422 145.77 326.971 153.155 322.515 153.155ZM309.454 150.164C311.957 150.164 319.647 142.718 320.684 141.62C320.074 141.009 318.792 140.643 317.694 140.643C312.75 140.887 308.661 146.624 308.661 149.188C308.661 149.859 308.966 150.164 309.454 150.164ZM317.206 132.831C316.534 132.831 316.046 132.221 316.046 131.549C316.046 131.122 316.29 130.634 316.839 130.39L322.515 128.375L322.943 128.314C323.614 128.314 324.163 128.986 324.163 129.596C324.163 130.084 323.858 130.512 323.309 130.695L317.755 132.709C317.572 132.77 317.389 132.831 317.206 132.831ZM346.043 153.216C342.015 153.155 340.489 151.568 340.489 148.638C340.489 145.526 342.381 141.376 344.456 137.53C348.728 129.657 356.174 117.451 360.447 110.92C360.691 110.493 361.057 110.371 361.423 110.371C362.155 110.371 362.766 110.981 362.766 111.591C362.766 111.835 362.705 112.019 362.522 112.263C358.188 118.915 350.986 130.756 346.653 138.751C344.029 143.634 342.991 146.624 342.991 148.516C343.052 150.286 343.907 150.653 346.226 150.714C353.062 150.714 364.658 144.671 371.86 141.314C372.043 141.192 372.287 141.131 372.47 141.131C373.202 141.131 373.63 141.864 373.63 142.474C373.63 142.901 373.447 143.329 372.897 143.573C365.329 147.174 353.489 153.216 346.043 153.216ZM370.371 153.216C368.113 153.094 366.892 151.873 366.892 149.859C367.014 146.807 369.456 142.84 371.775 140.765C372.141 138.873 373.972 137.897 375.803 137.897C377.878 137.897 380.014 139.178 380.014 141.925C380.014 142.596 379.892 143.329 379.648 144.122C380.686 144.244 381.784 144.366 383.005 144.366C387.888 144.366 394.052 143.145 400.949 140.887L401.376 140.826C402.169 140.826 402.475 141.376 402.597 142.108C402.597 142.596 402.291 143.084 401.742 143.268C394.723 145.526 388.193 146.868 382.944 146.868C381.357 146.868 379.953 146.746 378.611 146.502C376.963 149.432 373.362 153.216 370.371 153.216ZM377.207 143.573C377.451 142.962 377.512 142.413 377.512 141.986C377.512 140.765 376.719 140.338 375.925 140.338C375.071 140.338 374.277 140.765 374.216 141.376C374.216 142.291 376.047 143.207 377.207 143.573ZM370.371 150.714C372.202 150.653 374.827 147.845 376.108 145.831C374.643 145.343 373.362 144.549 372.507 143.512C371.348 144.854 369.395 147.723 369.334 149.798C369.334 150.347 369.578 150.714 370.249 150.714H370.371ZM385.422 184.343C383.408 184.343 382.005 182.756 382.005 180.498L382.127 179.399C383.164 174.578 389.756 166.887 391.16 165.301C395.92 160.052 401.047 155.962 406.357 152.667L409.408 146.807C406.479 149.493 402.023 153.094 398.85 153.094C396.714 153.094 395.615 151.934 395.615 150.164C395.615 145.831 402.756 137.652 406.113 136.432C406.845 136.188 407.516 136.066 408.188 136.066C410.629 136.066 412.155 137.775 413.193 139.239C413.864 138.385 413.925 137.897 414.779 137.897C415.39 137.897 416.061 138.446 416.061 139.117C416.061 139.361 416 139.545 415.878 139.789C414.963 141.437 411.972 147.296 410.385 150.286C418.075 146.136 426.193 143.329 434.249 140.887L434.676 140.826C435.47 140.826 435.775 141.376 435.897 142.047C435.897 142.596 435.592 143.084 434.981 143.268C425.643 146.075 416.549 149.31 408.249 154.437C400.559 168.84 391.404 184.343 385.422 184.343ZM398.911 150.592C402.268 150.592 409.042 143.817 411.484 141.192C410.812 140.155 409.714 138.629 408.066 138.629C407.7 138.629 407.333 138.69 406.967 138.812C404.465 139.728 398.545 146.136 398.056 150.103C398.056 150.53 398.239 150.592 398.85 150.592H398.911ZM385.728 181.84C385.972 181.84 386.277 181.779 386.643 181.657C390.854 180.193 397.995 168.291 403.915 157.305C400.131 159.991 396.469 163.164 392.991 166.948C391.953 168.108 384.507 177.141 384.507 180.498C384.507 181.352 384.934 181.84 385.728 181.84ZM432.656 153.216C430.398 153.094 429.177 151.873 429.177 149.859C429.299 146.807 431.74 142.84 434.06 140.765C434.426 138.873 436.257 137.897 438.088 137.897C440.163 137.897 442.299 139.178 442.299 141.925C442.299 142.596 442.177 143.329 441.933 144.122C442.971 144.244 444.069 144.366 445.29 144.366C450.172 144.366 456.337 143.145 463.234 140.887L463.661 140.826C464.454 140.826 464.759 141.376 464.881 142.108C464.881 142.596 464.576 143.084 464.027 143.268C457.008 145.526 450.478 146.868 445.229 146.868C443.642 146.868 442.238 146.746 440.895 146.502C439.247 149.432 435.647 153.216 432.656 153.216ZM439.492 143.573C439.736 142.962 439.797 142.413 439.797 141.986C439.797 140.765 439.003 140.338 438.21 140.338C437.355 140.338 436.562 140.765 436.501 141.376C436.501 142.291 438.332 143.207 439.492 143.573ZM432.656 150.714C434.487 150.653 437.111 147.845 438.393 145.831C436.928 145.343 435.647 144.549 434.792 143.512C433.632 144.854 431.679 147.723 431.618 149.798C431.618 150.347 431.862 150.714 432.534 150.714H432.656ZM462.172 156.939C459.731 156.939 458.815 155.779 458.632 154.131C458.632 151.019 464.43 148.761 471.815 146.624L472.182 146.502C468.764 145.221 463.271 145.037 462.66 142.657L462.538 142.108C462.782 139.728 465.956 138.446 470.534 137.164C472.914 136.493 475.355 136.066 476.942 136.066C478.285 136.188 478.834 136.188 479.567 136.92C479.994 137.347 480.299 137.836 480.299 138.385C480.116 140.216 478.834 141.742 476.759 142.84C476.576 142.962 476.332 142.962 476.149 142.962C475.477 142.962 474.928 142.474 474.928 141.803C474.928 141.314 475.172 140.887 475.599 140.643C476.698 140.033 477.247 139.422 477.736 138.629L477.003 138.507C474.684 138.507 469.679 139.789 466.689 141.131C465.895 141.498 465.346 141.864 465.163 142.047C466.078 142.657 473.585 143.329 475.355 145.709C486.402 142.84 499.219 140.826 499.524 140.826C500.257 140.826 500.806 141.376 500.806 142.047C500.806 142.779 500.257 143.329 499.524 143.329C499.219 143.329 486.891 145.343 476.088 148.089C475.538 152.056 467.238 156.939 462.172 156.939ZM462.172 154.437C465.041 154.437 471.083 151.629 473.036 148.883C469.252 150.164 466.322 150.897 463.759 152.117C462.111 152.972 461.135 153.643 461.135 154.07C461.135 154.254 461.135 154.254 461.257 154.254C461.501 154.376 461.806 154.437 462.172 154.437Z" fill="#33CC33"/>
</svg>
